<?xml version="1.0" encoding="utf-8"?>
<!-- Generator: Adobe Illustrator 16.0.0, SVG Export Plug-In . SVG Version: 6.00 Build 0)  -->
<!DOCTYPE svg PUBLIC "-//W3C//DTD SVG 1.1//EN" "http://www.w3.org/Graphics/SVG/1.1/DTD/svg11.dtd">
<svg version="1.1" id="Capa_1" xmlns="http://www.w3.org/2000/svg" xmlns:xlink="http://www.w3.org/1999/xlink" x="0px" y="0px"
	 width="146px" height="143px" viewBox="0 0 146 143" enable-background="new 0 0 146 143" xml:space="preserve">
<g transform="translate(0.000000,143.000000) scale(0.100000,-0.100000)">
	<path fill="#58585A" d="M561.001,1315c-226.001-51.001-407.002-227.002-465-451.001C76.001,786.001,75,632.998,95,555
		c55-215.996,222.002-387.002,441.001-450.996C607.998,82.998,762.998,80,840,99.004c100,23.994,215,87.998,287.998,160
		C1327.002,455,1374.004,736.001,1252.002,990c-67.998,141.001-216.006,263.999-379.004,316.001
		C802.998,1327.998,638.999,1332.998,561.001,1315z M844.004,1283.999c98.994-26.001,192.998-80,270.996-158.999
		c117.998-117.002,175-253.999,175-417.002c0-115.996-39.004-252.998-92.002-322.002c-15-18.994-15.996-18.994-43.994,1.006
		c-16.006,10.996-46.006,25.996-67.002,32.998C1025.996,439.004,1020,465,1020,702.002c0,221.997-10.996,301.997-52.998,385
		C914.004,1190,830,1243.999,720,1243.999c-56.001,1.001-76.001-5-150-41.001C473.999,1156.001,440,1125,411.001,1060
		c-35-81.001-43.999-170-38.003-372.998c8.003-224.004,3.003-246.006-60.996-265C288.999,415,257.998,397.998,241.001,385
		l-28.999-25l-30,52.002c-71.001,123.994-96.001,275-68.003,406.997c48.999,231.001,212.002,405,436.001,465
		C623.999,1303.999,767.002,1303.999,844.004,1283.999z M580,951.001c0-23.003,25-53.003,65-77.002
		c27.998-17.998,28.999-17.998,22.002-1.001c-4.004,11.001-10,30-13.003,44.004c-6.001,23.999-6.001,23.999,38.999-10
		c54.004-41.001,132.998-70,181.006-66.001c63.994,6.001,101.992-63.999,56.992-105c-10.996-10-28.994-43.999-40.996-76.997
		c-25.996-68.008-94.004-150-140-169.004c-38.999-15.996-101.001-7.998-140,20c-36.001,25-80,89.004-102.998,145.996
		C497.998,679.004,480,713.999,466.001,735c-31.001,45-33.003,71.001-8.003,83.999c10,5,24.004,28.003,31.001,50
		C510,938.999,580,1002.998,580,951.001z M850,430l22.002-60l-26.006-55C800,222.998,717.002,169.004,663.999,197.002
		C605,227.002,530,320.996,530,365c0,30.996,31.001,115.996,43.999,120.996c6.001,2.002,28.999-5,51.001-15.996
		c51.001-25.996,90-25,145,2.998c25,12.998,47.998,22.002,50.996,20C825,492.002,837.998,462.998,850,430z"/>
</g>
</svg>
