<?xml version="1.0" encoding="utf-8"?>
<!-- Generator: Adobe Illustrator 16.0.0, SVG Export Plug-In . SVG Version: 6.00 Build 0)  -->
<!DOCTYPE svg PUBLIC "-//W3C//DTD SVG 1.1//EN" "http://www.w3.org/Graphics/SVG/1.1/DTD/svg11.dtd">
<svg version="1.1" id="Capa_1" xmlns="http://www.w3.org/2000/svg" xmlns:xlink="http://www.w3.org/1999/xlink" x="0px" y="0px"
	 width="21.418px" height="34.693px" viewBox="0 0 21.418 34.693" enable-background="new 0 0 21.418 34.693" xml:space="preserve">
<g>
	<defs>
		<path id="SVGID_1_" d="M3.222,11.821H1.283l-1.419,3.747h3.215L3.032,18.02H1.236l-1.372,3.745h3.263
			c0.219,8.619,3.529,12.928,9.928,12.928c2.333,0,4.714-0.672,7.142-2.02v-6.005c-2.428,2.146-4.46,3.219-6.1,3.219
			c-1.798,0-2.995-0.977-3.594-2.932c-0.315-0.96-0.521-2.69-0.616-5.19h4.777l1.371-3.745H9.794v-2.452h6.714l1.371-3.747H9.935
			c0.125-2.18,0.395-3.749,0.805-4.709c0.662-1.569,1.892-2.355,3.688-2.355c1.607,0,3.168,0.817,4.681,2.451l2.175-4.806
			C19.234,0.801,16.807,0,14.002,0C7.476,0,3.883,3.94,3.222,11.821"/>
	</defs>
	<clipPath id="SVGID_2_">
		<use xlink:href="#SVGID_1_"  overflow="visible"/>
	</clipPath>
	
		<radialGradient id="SVGID_3_" cx="-156.5059" cy="697.6003" r="1.0004" gradientTransform="matrix(14.4153 0 0 -14.4153 2266.6538 10073.4609)" gradientUnits="userSpaceOnUse">
		<stop  offset="0" style="stop-color:#FFFFFF"/>
		<stop  offset="1" style="stop-color:#DEDEDE"/>
	</radialGradient>
	<rect x="-0.136" y="0" clip-path="url(#SVGID_2_)" fill="url(#SVGID_3_)" width="21.419" height="34.693"/>
</g>
</svg>
