<?xml version="1.0" encoding="utf-8"?>
<!-- Generator: Adobe Illustrator 16.0.0, SVG Export Plug-In . SVG Version: 6.00 Build 0)  -->
<!DOCTYPE svg PUBLIC "-//W3C//DTD SVG 1.1//EN" "http://www.w3.org/Graphics/SVG/1.1/DTD/svg11.dtd">
<svg version="1.1" id="Capa_1" xmlns="http://www.w3.org/2000/svg" xmlns:xlink="http://www.w3.org/1999/xlink" x="0px" y="0px"
	 width="36.667px" height="40.404px" viewBox="0 0 36.667 40.404" enable-background="new 0 0 36.667 40.404" xml:space="preserve">
<g>
	<g>
		<g opacity="0.35">
			<defs>
				<rect id="SVGID_1_" y="37.879" opacity="0.35" width="36.666" height="3.85"/>
			</defs>
			<clipPath id="SVGID_2_">
				<use xlink:href="#SVGID_1_"  overflow="visible"/>
			</clipPath>
			<g clip-path="url(#SVGID_2_)">
				<g>
					<defs>
						<path id="SVGID_3_" d="M36.666,39.803c0,1.063-8.207,1.926-18.332,1.926C8.209,41.729,0,40.866,0,39.803
							c0-1.063,8.209-1.924,18.334-1.924C28.458,37.879,36.666,38.741,36.666,39.803"/>
					</defs>
					<clipPath id="SVGID_4_">
						<use xlink:href="#SVGID_3_"  overflow="visible"/>
					</clipPath>
					
						<radialGradient id="SVGID_5_" cx="-137.1953" cy="-859.7598" r="1.0009" gradientTransform="matrix(18.3247 0 0 1.9255 2532.3818 1700.4448)" gradientUnits="userSpaceOnUse">
						<stop  offset="0" style="stop-color:#030104"/>
						<stop  offset="1" style="stop-color:#FFFFFF"/>
					</radialGradient>
					<rect x="-0.001" y="43.063" clip-path="url(#SVGID_4_)" fill="url(#SVGID_5_)" width="36.666" height="3.85"/>
				</g>
			</g>
		</g>
		<g>
			<g>
				<defs>
					<path id="SVGID_6_" d="M18.809,2.216c0,0-0.637,0.354-0.744,0.354c-0.104,0-0.744-0.283-0.744-0.283l0.604,0.637
						c0,0-0.742-0.211-2.121-0.176c-1.381,0.035-4.426,1.204-4.426,1.204h0.744l-0.783,0.424l0.955-0.105
						c0,0-2.691,1.984-3.256,2.975c-0.566,0.992-0.566,4.32-0.566,4.32c0.072-0.215,0.354-0.355,0.354-0.355
						c0.035,1.982,0.355,4.178,0.355,4.178s-0.672-0.035-1.17,0.745c-0.492,0.779,0.25,3.574,0.814,4.283
						c0.566,0.709,1.346,0.283,1.346,0.283c0.994,4.603,3.084,5.807,3.084,5.807s0.281,2.479-0.285,2.938
						C12.4,29.902,2.771,31.85,1.496,33.159c-1.271,1.312-0.918,5.348-0.918,5.348s3.521,1.3,17.754,1.3
						c14.234,0,17.755-1.3,17.755-1.3s0.352-4.036-0.92-5.348c-1.277-1.31-10.908-3.257-11.476-3.718
						c-0.563-0.459-0.28-2.938-0.28-2.938s2.09-1.205,3.08-5.807c0,0,0.778,0.426,1.346-0.283c0.566-0.709,1.311-3.504,0.813-4.283
						c-0.498-0.78-1.17-0.745-1.17-0.745s0.322-2.408,0.322-4.674c-0.039-1.805-0.568-3.043-0.568-3.043l0.459,0.211
						c-0.28-0.957-1.414-2.443-1.414-2.443l0.459-0.105c-0.954-0.533-2.616-0.318-2.616-0.318c-0.461-1.135-2.445-2.161-3.265-2.62
						C20.496,2.187,20.044,2.13,19.66,2.13C19.186,2.13,18.809,2.216,18.809,2.216"/>
				</defs>
				<clipPath id="SVGID_7_">
					<use xlink:href="#SVGID_6_"  overflow="visible"/>
				</clipPath>
				
					<radialGradient id="SVGID_8_" cx="-137.9927" cy="-652.9443" r="1" gradientTransform="matrix(25.0504 0 0 25.0504 3475.0972 16371.167)" gradientUnits="userSpaceOnUse">
					<stop  offset="0" style="stop-color:#FFFFFF"/>
					<stop  offset="1" style="stop-color:#E0DFDF"/>
				</radialGradient>
				<rect x="0.225" y="2.13" clip-path="url(#SVGID_7_)" fill="url(#SVGID_8_)" width="36.214" height="37.675"/>
			</g>
		</g>
		<path fill="#CDCDCD" d="M8.211,21.815L8.211,21.815c-1.916,0-3.469-0.904-3.469-2.018v-4.229c0-1.114,1.553-2.016,3.469-2.016"/>
		<path fill="#CDCDCD" d="M16.607,32.668c-7.438-1.611-9.658-8.049-9.75-8.322l-0.021-0.143V20.67h0.902v3.455
			c0.248,0.662,2.52,6.244,9.061,7.662L16.607,32.668z"/>
		<path fill="#CDCDCD" d="M19.557,32.107c0,0.916-0.744,1.66-1.66,1.66h-2.66c-0.916,0-1.662-0.744-1.662-1.66
			c0-0.918,0.746-1.662,1.662-1.662h2.66C18.813,30.445,19.557,31.189,19.557,32.107"/>
		<path fill="#CDCDCD" d="M28.451,21.815L28.451,21.815c1.918,0,3.471-0.904,3.471-2.018v-4.229c0-1.114-1.553-2.016-3.471-2.016"/>
		<path fill="#CDCDCD" d="M29.746,14.867l-0.889-0.16c0.012-0.064,1.131-6.523-2.23-10.547c-1.809-2.163-4.598-3.258-8.293-3.258
			c-3.699,0-6.492,1.097-8.297,3.26C6.67,8.195,7.793,14.643,7.807,14.707l-0.889,0.16c-0.051-0.28-1.209-6.93,2.424-11.283
			C11.328,1.207,14.354,0,18.332,0s7.003,1.207,8.99,3.584C30.955,7.938,29.796,14.587,29.746,14.867"/>
	</g>
</g>
</svg>
